# xmcd CD database file
#
# Track frame offsets:
#	150
#	18286
#	35602
#	53578
#	64454
#	79085
#	99896
#	111040
#	123862
#	134065
#	152305
#	169185
#	189606
#	206336
#	223729
#	249240
#	290390
#
# Disc length: 3898 seconds
#
# Revision: 0
# Processed by: cddbd v1.5.1PL0 Copyright (c) Steve Scherf et al.
# Submitted via: CDex 1.51
#
DISCID=e60f3811
DTITLE=J.M.'s Home - Jmmidi Best Hits 3 Ver.2004
DYEAR=1900
DGENRE=サウンドトラック (一般)
TTITLE0=オープニング〜爆破ミッション　〜ファイナルファンタジー?
TTITLE1=世界変革の時　〜クロノ・トリガー
TTITLE2=虚空への前奏曲 From ファイナルファンタジー?
TTITLE3=巨人のダンジョン　〜ファイナルファンタジー?
TTITLE4=[オペラ] 大団円　〜ファイナルファンタジー?
TTITLE5=独りじゃない　〜ファイナルファンタジーIX
TTITLE6=オープニングタイトル　〜サガ フロンティア
TTITLE7=術戦車バトル　〜ロマンシング サ・ガ３
TTITLE8=玄城バトル　〜ロマンシング サ・ガ３
TTITLE9=子午線の祀り　〜聖剣伝説２
TTITLE10=Can You Fly Sister?　〜聖剣伝説３
TTITLE11=妖星乱舞　〜ファイナルファンタジー?
TTITLE12=妖星乱舞　〜ファイナルファンタジー?
TTITLE13=妖星乱舞　〜ファイナルファンタジー?
TTITLE14=妖星乱舞　〜ファイナルファンタジー?
TTITLE15=JMMIDI BEST HITS 3 Ver.2004 お試し版メドレー
TTITLE16=データトラック
EXTD=
EXTT0=
EXTT1=
EXTT2=
EXTT3=
EXTT4=
EXTT5=
EXTT6=
EXTT7=
EXTT8=
EXTT9=
EXTT10=
EXTT11=
EXTT12=
EXTT13=
EXTT14=
EXTT15=
EXTT16=
PLAYORDER=
